<mxfile host="app.diagrams.net" agent="Mozilla/5.0 (Windows NT 10.0; Win64; x64) AppleWebKit/537.36 (KHTML, like Gecko) Chrome/129.0.0.0 Safari/537.36" version="24.8.0">
  <diagram id="prtHgNgQTEPvFCAcTncT" name="Page-1">
    <mxGraphModel dx="2261" dy="756" grid="1" gridSize="10" guides="1" tooltips="1" connect="1" arrows="1" fold="1" page="1" pageScale="1" pageWidth="827" pageHeight="1169" math="0" shadow="0">
      <root>
        <mxCell id="0" />
        <mxCell id="1" parent="0" />
        <mxCell id="dNxyNK7c78bLwvsdeMH5-19" value="凭证拆分拆分流程" style="swimlane;html=1;childLayout=stackLayout;resizeParent=1;resizeParentMax=0;horizontal=0;startSize=20;horizontalStack=0;" parent="1" vertex="1">
          <mxGeometry x="-30" y="91" width="1050" height="840" as="geometry" />
        </mxCell>
        <mxCell id="dNxyNK7c78bLwvsdeMH5-20" value="物料凭证" style="swimlane;html=1;startSize=20;horizontal=0;fillColor=#1ba1e2;fontColor=#ffffff;strokeColor=#006EAF;" parent="dNxyNK7c78bLwvsdeMH5-19" vertex="1">
          <mxGeometry x="20" width="1030" height="280" as="geometry" />
        </mxCell>
        <mxCell id="LG8pZTU2bvwQHo-lbVss-6" value="" style="edgeStyle=orthogonalEdgeStyle;rounded=0;orthogonalLoop=1;jettySize=auto;html=1;" edge="1" parent="dNxyNK7c78bLwvsdeMH5-20" source="LG8pZTU2bvwQHo-lbVss-4">
          <mxGeometry relative="1" as="geometry">
            <mxPoint x="167" y="110" as="targetPoint" />
          </mxGeometry>
        </mxCell>
        <mxCell id="LG8pZTU2bvwQHo-lbVss-4" value="获取凭证" style="shape=cylinder3;whiteSpace=wrap;html=1;boundedLbl=1;backgroundOutline=1;size=15;" vertex="1" parent="dNxyNK7c78bLwvsdeMH5-20">
          <mxGeometry x="48" y="50" width="60" height="120" as="geometry" />
        </mxCell>
        <mxCell id="LG8pZTU2bvwQHo-lbVss-18" style="edgeStyle=orthogonalEdgeStyle;rounded=0;orthogonalLoop=1;jettySize=auto;html=1;" edge="1" parent="dNxyNK7c78bLwvsdeMH5-20" source="LG8pZTU2bvwQHo-lbVss-10" target="LG8pZTU2bvwQHo-lbVss-17">
          <mxGeometry relative="1" as="geometry" />
        </mxCell>
        <mxCell id="LG8pZTU2bvwQHo-lbVss-19" value="&lt;font style=&quot;font-size: 18px;&quot;&gt;否&lt;/font&gt;" style="edgeLabel;html=1;align=center;verticalAlign=middle;resizable=0;points=[];" vertex="1" connectable="0" parent="LG8pZTU2bvwQHo-lbVss-18">
          <mxGeometry x="-0.2553" relative="1" as="geometry">
            <mxPoint as="offset" />
          </mxGeometry>
        </mxCell>
        <mxCell id="LG8pZTU2bvwQHo-lbVss-10" value="是否有价值变动" style="rhombus;whiteSpace=wrap;html=1;" vertex="1" parent="dNxyNK7c78bLwvsdeMH5-20">
          <mxGeometry x="560" y="65" width="102" height="80" as="geometry" />
        </mxCell>
        <mxCell id="LG8pZTU2bvwQHo-lbVss-17" value="保存凭证处理结果" style="rounded=1;whiteSpace=wrap;html=1;" vertex="1" parent="dNxyNK7c78bLwvsdeMH5-20">
          <mxGeometry x="738" y="80" width="120" height="60" as="geometry" />
        </mxCell>
        <mxCell id="LG8pZTU2bvwQHo-lbVss-43" value="校验库存" style="rhombus;whiteSpace=wrap;html=1;" vertex="1" parent="dNxyNK7c78bLwvsdeMH5-20">
          <mxGeometry x="220" y="190" width="104" height="70" as="geometry" />
        </mxCell>
        <mxCell id="LG8pZTU2bvwQHo-lbVss-51" style="edgeStyle=orthogonalEdgeStyle;rounded=0;orthogonalLoop=1;jettySize=auto;html=1;exitX=0.5;exitY=1;exitDx=0;exitDy=0;" edge="1" parent="dNxyNK7c78bLwvsdeMH5-20" source="LG8pZTU2bvwQHo-lbVss-47" target="LG8pZTU2bvwQHo-lbVss-43">
          <mxGeometry relative="1" as="geometry" />
        </mxCell>
        <mxCell id="LG8pZTU2bvwQHo-lbVss-55" value="" style="edgeStyle=orthogonalEdgeStyle;rounded=0;orthogonalLoop=1;jettySize=auto;html=1;" edge="1" parent="dNxyNK7c78bLwvsdeMH5-20" source="LG8pZTU2bvwQHo-lbVss-47" target="LG8pZTU2bvwQHo-lbVss-10">
          <mxGeometry relative="1" as="geometry" />
        </mxCell>
        <mxCell id="LG8pZTU2bvwQHo-lbVss-47" value="加锁，开始处理凭证" style="rounded=1;whiteSpace=wrap;html=1;fillColor=#1ba1e2;fontColor=#ffffff;strokeColor=#006EAF;" vertex="1" parent="dNxyNK7c78bLwvsdeMH5-20">
          <mxGeometry x="363.5" y="78" width="146.5" height="55" as="geometry" />
        </mxCell>
        <mxCell id="LG8pZTU2bvwQHo-lbVss-56" style="edgeStyle=orthogonalEdgeStyle;rounded=0;orthogonalLoop=1;jettySize=auto;html=1;exitX=1;exitY=0.5;exitDx=0;exitDy=0;" edge="1" parent="dNxyNK7c78bLwvsdeMH5-20" source="LG8pZTU2bvwQHo-lbVss-48">
          <mxGeometry relative="1" as="geometry">
            <mxPoint x="360" y="110" as="targetPoint" />
          </mxGeometry>
        </mxCell>
        <mxCell id="LG8pZTU2bvwQHo-lbVss-48" value="当前是否有仓库是否有执行中的凭证" style="rhombus;whiteSpace=wrap;html=1;" vertex="1" parent="dNxyNK7c78bLwvsdeMH5-20">
          <mxGeometry x="168" y="55" width="122" height="110" as="geometry" />
        </mxCell>
        <mxCell id="LG8pZTU2bvwQHo-lbVss-52" style="edgeStyle=orthogonalEdgeStyle;rounded=0;orthogonalLoop=1;jettySize=auto;html=1;exitX=0.5;exitY=0;exitDx=0;exitDy=0;entryX=0.5;entryY=0;entryDx=0;entryDy=0;entryPerimeter=0;" edge="1" parent="dNxyNK7c78bLwvsdeMH5-20" source="LG8pZTU2bvwQHo-lbVss-48" target="LG8pZTU2bvwQHo-lbVss-4">
          <mxGeometry relative="1" as="geometry" />
        </mxCell>
        <mxCell id="LG8pZTU2bvwQHo-lbVss-53" value="有则继续等待" style="edgeLabel;html=1;align=center;verticalAlign=middle;resizable=0;points=[];" vertex="1" connectable="0" parent="LG8pZTU2bvwQHo-lbVss-52">
          <mxGeometry x="0.0102" y="-3" relative="1" as="geometry">
            <mxPoint as="offset" />
          </mxGeometry>
        </mxCell>
        <mxCell id="LG8pZTU2bvwQHo-lbVss-60" style="edgeStyle=orthogonalEdgeStyle;rounded=0;orthogonalLoop=1;jettySize=auto;html=1;entryX=0.75;entryY=0.208;entryDx=0;entryDy=0;entryPerimeter=0;" edge="1" parent="dNxyNK7c78bLwvsdeMH5-20" target="LG8pZTU2bvwQHo-lbVss-4">
          <mxGeometry relative="1" as="geometry">
            <mxPoint x="800" y="80" as="sourcePoint" />
            <Array as="points">
              <mxPoint x="800" y="80" />
              <mxPoint x="800" y="19" />
              <mxPoint x="93" y="19" />
            </Array>
          </mxGeometry>
        </mxCell>
        <mxCell id="dNxyNK7c78bLwvsdeMH5-21" value="库存&amp;amp;价值" style="swimlane;html=1;startSize=20;horizontal=0;fillColor=#d5e8d4;strokeColor=#82b366;" parent="dNxyNK7c78bLwvsdeMH5-19" vertex="1">
          <mxGeometry x="20" y="280" width="1030" height="270" as="geometry" />
        </mxCell>
        <mxCell id="dNxyNK7c78bLwvsdeMH5-26" value="生成库存变动记录" style="rounded=0;whiteSpace=wrap;html=1;fontFamily=Helvetica;fontSize=12;fontColor=#000000;align=center;" parent="dNxyNK7c78bLwvsdeMH5-21" vertex="1">
          <mxGeometry x="197" y="54" width="150" height="70" as="geometry" />
        </mxCell>
        <mxCell id="LG8pZTU2bvwQHo-lbVss-8" value="变更库存" style="rounded=0;whiteSpace=wrap;html=1;fontFamily=Helvetica;fontSize=12;fontColor=#000000;align=center;" vertex="1" parent="dNxyNK7c78bLwvsdeMH5-21">
          <mxGeometry x="197" y="155" width="150" height="70" as="geometry" />
        </mxCell>
        <mxCell id="LG8pZTU2bvwQHo-lbVss-21" value="变更价值" style="rounded=0;whiteSpace=wrap;html=1;fontFamily=Helvetica;fontSize=12;fontColor=#000000;align=center;" vertex="1" parent="dNxyNK7c78bLwvsdeMH5-21">
          <mxGeometry x="436" y="155" width="150" height="70" as="geometry" />
        </mxCell>
        <mxCell id="LG8pZTU2bvwQHo-lbVss-36" value="库存处理" style="swimlane;whiteSpace=wrap;html=1;" vertex="1" parent="dNxyNK7c78bLwvsdeMH5-21">
          <mxGeometry x="168" y="25" width="208" height="215" as="geometry" />
        </mxCell>
        <mxCell id="LG8pZTU2bvwQHo-lbVss-38" value="价值处理处理" style="swimlane;whiteSpace=wrap;html=1;" vertex="1" parent="dNxyNK7c78bLwvsdeMH5-21">
          <mxGeometry x="406" y="25" width="208" height="215" as="geometry" />
        </mxCell>
        <mxCell id="LG8pZTU2bvwQHo-lbVss-20" value="生成价值变动记录" style="rounded=0;whiteSpace=wrap;html=1;fontFamily=Helvetica;fontSize=12;fontColor=#000000;align=center;" vertex="1" parent="LG8pZTU2bvwQHo-lbVss-38">
          <mxGeometry x="30" y="29" width="150" height="70" as="geometry" />
        </mxCell>
        <mxCell id="LG8pZTU2bvwQHo-lbVss-46" value="凭证对应的价值，是在生成凭证的时候就处理还是这时候根据什么计算" style="shape=document;whiteSpace=wrap;html=1;boundedLbl=1;" vertex="1" parent="dNxyNK7c78bLwvsdeMH5-21">
          <mxGeometry x="638" y="25" width="142" height="105" as="geometry" />
        </mxCell>
        <mxCell id="LG8pZTU2bvwQHo-lbVss-26" style="edgeStyle=orthogonalEdgeStyle;rounded=0;orthogonalLoop=1;jettySize=auto;html=1;exitX=0.5;exitY=1;exitDx=0;exitDy=0;entryX=0.5;entryY=0;entryDx=0;entryDy=0;" edge="1" parent="dNxyNK7c78bLwvsdeMH5-19" source="LG8pZTU2bvwQHo-lbVss-10" target="LG8pZTU2bvwQHo-lbVss-38">
          <mxGeometry relative="1" as="geometry">
            <mxPoint x="519" y="300" as="targetPoint" />
          </mxGeometry>
        </mxCell>
        <mxCell id="LG8pZTU2bvwQHo-lbVss-28" value="&lt;font style=&quot;font-size: 18px;&quot;&gt;是&lt;/font&gt;" style="edgeLabel;html=1;align=center;verticalAlign=middle;resizable=0;points=[];" vertex="1" connectable="0" parent="LG8pZTU2bvwQHo-lbVss-26">
          <mxGeometry x="0.0543" y="-2" relative="1" as="geometry">
            <mxPoint as="offset" />
          </mxGeometry>
        </mxCell>
        <mxCell id="dNxyNK7c78bLwvsdeMH5-22" value="会计凭证" style="swimlane;html=1;startSize=20;horizontal=0;fillColor=#fff2cc;strokeColor=#d6b656;" parent="dNxyNK7c78bLwvsdeMH5-19" vertex="1">
          <mxGeometry x="20" y="550" width="1030" height="290" as="geometry" />
        </mxCell>
        <mxCell id="LG8pZTU2bvwQHo-lbVss-29" value="生成会计凭证" style="rounded=0;whiteSpace=wrap;html=1;fontFamily=Helvetica;fontSize=12;fontColor=#000000;align=center;" vertex="1" parent="dNxyNK7c78bLwvsdeMH5-22">
          <mxGeometry x="556" y="90" width="150" height="70" as="geometry" />
        </mxCell>
        <mxCell id="LG8pZTU2bvwQHo-lbVss-35" value="" style="edgeStyle=orthogonalEdgeStyle;rounded=0;orthogonalLoop=1;jettySize=auto;html=1;" edge="1" parent="dNxyNK7c78bLwvsdeMH5-22" source="LG8pZTU2bvwQHo-lbVss-33" target="LG8pZTU2bvwQHo-lbVss-29">
          <mxGeometry relative="1" as="geometry" />
        </mxCell>
        <mxCell id="LG8pZTU2bvwQHo-lbVss-33" value="物料转会计凭证规则" style="shape=parallelogram;perimeter=parallelogramPerimeter;whiteSpace=wrap;html=1;fixedSize=1;" vertex="1" parent="dNxyNK7c78bLwvsdeMH5-22">
          <mxGeometry x="152" y="90" width="148" height="70" as="geometry" />
        </mxCell>
        <mxCell id="LG8pZTU2bvwQHo-lbVss-39" style="edgeStyle=orthogonalEdgeStyle;rounded=0;orthogonalLoop=1;jettySize=auto;html=1;exitX=0.5;exitY=1;exitDx=0;exitDy=0;entryX=0.5;entryY=0;entryDx=0;entryDy=0;" edge="1" parent="dNxyNK7c78bLwvsdeMH5-19" source="LG8pZTU2bvwQHo-lbVss-38" target="LG8pZTU2bvwQHo-lbVss-33">
          <mxGeometry relative="1" as="geometry" />
        </mxCell>
        <mxCell id="LG8pZTU2bvwQHo-lbVss-42" style="edgeStyle=orthogonalEdgeStyle;rounded=0;orthogonalLoop=1;jettySize=auto;html=1;exitX=1;exitY=0.5;exitDx=0;exitDy=0;entryX=0.5;entryY=1;entryDx=0;entryDy=0;" edge="1" parent="dNxyNK7c78bLwvsdeMH5-19" source="LG8pZTU2bvwQHo-lbVss-29" target="LG8pZTU2bvwQHo-lbVss-17">
          <mxGeometry relative="1" as="geometry" />
        </mxCell>
        <mxCell id="LG8pZTU2bvwQHo-lbVss-45" style="edgeStyle=orthogonalEdgeStyle;rounded=0;orthogonalLoop=1;jettySize=auto;html=1;exitX=0.5;exitY=1;exitDx=0;exitDy=0;" edge="1" parent="dNxyNK7c78bLwvsdeMH5-19" source="LG8pZTU2bvwQHo-lbVss-43" target="LG8pZTU2bvwQHo-lbVss-36">
          <mxGeometry relative="1" as="geometry" />
        </mxCell>
      </root>
    </mxGraphModel>
  </diagram>
</mxfile>
